<mxfile host="app.diagrams.net" modified="2022-02-10T08:45:23.546Z" agent="5.0 (Windows NT 10.0; Win64; x64) AppleWebKit/537.36 (KHTML, like Gecko) Chrome/98.0.4758.82 Safari/537.36" etag="7N9eddZWBp8LZVPEa7So" version="16.5.5" type="github">
  <diagram id="FB37sIamnhYhoBZlDMoo" name="Page-1">
    <mxGraphModel dx="731" dy="417" grid="1" gridSize="10" guides="1" tooltips="1" connect="1" arrows="1" fold="1" page="1" pageScale="1" pageWidth="827" pageHeight="1169" math="0" shadow="0">
      <root>
        <mxCell id="0" />
        <mxCell id="1" parent="0" />
        <mxCell id="qSqx6nqwd46b4UKnPx0d-1" value="C1: Círculo&lt;br&gt;-Color: Negro&lt;br&gt;-Diámetro: pi&lt;br&gt;-Perímetro:2pi^2&lt;br&gt;-Área: pi * pi^2" style="ellipse;whiteSpace=wrap;html=1;aspect=fixed;" vertex="1" parent="1">
          <mxGeometry x="40" y="160" width="140" height="140" as="geometry" />
        </mxCell>
        <mxCell id="qSqx6nqwd46b4UKnPx0d-2" value="R1: Rectángulo&lt;br&gt;-Color: Naranja&lt;br&gt;-Longitud: 2&lt;br&gt;-Largo: 3&lt;br&gt;-Perímetro: (2*2)+(2*3)=10&lt;br&gt;-Área: 2*3=6" style="rounded=0;whiteSpace=wrap;html=1;" vertex="1" parent="1">
          <mxGeometry x="220" y="175" width="180" height="110" as="geometry" />
        </mxCell>
        <mxCell id="qSqx6nqwd46b4UKnPx0d-3" value="C1: Cuadrado&lt;br&gt;-Color: Azul&lt;br&gt;-Lado: 4&lt;br&gt;-Perímetro: 4*4=16&lt;br&gt;-Área: 4^2=16" style="whiteSpace=wrap;html=1;aspect=fixed;" vertex="1" parent="1">
          <mxGeometry x="440" y="175" width="110" height="110" as="geometry" />
        </mxCell>
        <mxCell id="qSqx6nqwd46b4UKnPx0d-4" value="E1: Elipse&lt;br&gt;-Color: Amarillo&lt;br&gt;-Eje Mayor: 1&lt;br&gt;-Eje Menor: 3&lt;br&gt;-Perímetro: pi(1+3)= pi*4&lt;br&gt;-Área: pi*1*3= pi*4" style="ellipse;whiteSpace=wrap;html=1;" vertex="1" parent="1">
          <mxGeometry x="570" y="170" width="160" height="100" as="geometry" />
        </mxCell>
      </root>
    </mxGraphModel>
  </diagram>
</mxfile>
